<svg width="19" height="19" viewBox="0 0 19 19" fill="none" xmlns="http://www.w3.org/2000/svg">
<path d="M9.91407 0.830078C8.13404 0.830078 6.39398 1.35792 4.91393 2.34685C3.43389 3.33578 2.28034 4.74139 1.59915 6.38593C0.917962 8.03046 0.739732 9.84006 1.087 11.5859C1.43427 13.3317 2.29143 14.9354 3.55011 16.194C4.80878 17.4527 6.41243 18.3099 8.15825 18.6571C9.90408 19.0044 11.7137 18.8262 13.3582 18.145C15.0028 17.4638 16.4084 16.3103 17.3973 14.8302C18.3862 13.3502 18.9141 11.6101 18.9141 9.83008C18.9115 7.44392 17.9624 5.15624 16.2752 3.46897C14.5879 1.7817 12.3002 0.832659 9.91407 0.830078V0.830078ZM16.3993 6.08008H13.9836C13.4428 4.82682 12.7308 3.65464 11.8678 2.59708C13.7777 3.11677 15.4058 4.36818 16.3993 6.08008ZM13.2891 9.83008C13.2829 10.5937 13.1626 11.3521 12.9321 12.0801H6.89607C6.66556 11.3521 6.54522 10.5937 6.53907 9.83008C6.54522 9.06647 6.66556 8.30809 6.89607 7.58008H12.9321C13.1626 8.30809 13.2829 9.06647 13.2891 9.83008ZM7.49757 13.5801H12.3306C11.694 14.8369 10.8802 15.9957 9.91407 17.0211C8.9476 15.996 8.13375 14.8371 7.49757 13.5801ZM7.49757 6.08008C8.13414 4.82328 8.94795 3.66445 9.91407 2.63908C10.8805 3.66416 11.6944 4.82305 12.3306 6.08008H7.49757ZM7.96407 2.59708C7.09981 3.65442 6.38651 4.8266 5.84457 6.08008H3.42882C4.42321 4.3674 6.05281 3.11589 7.96407 2.59708ZM2.75982 7.58008H5.33907C5.14464 8.31444 5.04384 9.07043 5.03907 9.83008C5.04384 10.5897 5.14464 11.3457 5.33907 12.0801H2.75982C2.29882 10.6155 2.29882 9.04466 2.75982 7.58008ZM3.42882 13.5801H5.84457C6.38651 14.8336 7.09981 16.0057 7.96407 17.0631C6.05281 16.5443 4.42321 15.2928 3.42882 13.5801ZM11.8678 17.0631C12.7308 16.0055 13.4428 14.8333 13.9836 13.5801H16.3993C15.4058 15.292 13.7777 16.5434 11.8678 17.0631ZM17.0683 12.0801H14.4891C14.6835 11.3457 14.7843 10.5897 14.7891 9.83008C14.7843 9.07043 14.6835 8.31444 14.4891 7.58008H17.0668C17.5278 9.04466 17.5278 10.6155 17.0668 12.0801H17.0683Z" fill="white"/>
</svg>
