<svg width="137" height="56" viewBox="0 0 137 56" fill="none" xmlns="http://www.w3.org/2000/svg">
<path d="M125.188 31.665C125.125 31.665 125.071 31.6432 125.028 31.6026C124.996 31.5736 124.96 31.5199 124.96 31.4328V29.5712C124.96 29.4624 124.995 29.3637 125.061 29.2868C125.147 29.1954 125.254 29.1504 125.386 29.1504H126.087C126.322 29.1504 126.515 29.2273 126.662 29.3797C126.792 29.5219 126.859 29.6916 126.859 29.8861C126.859 30.0399 126.818 30.1719 126.734 30.2865C126.705 30.3257 126.672 30.362 126.636 30.3939C126.637 30.3954 126.639 30.3968 126.64 30.3968C126.729 30.4766 126.776 30.5913 126.776 30.7247C126.776 30.8887 126.782 31.012 126.795 31.1122C126.81 31.205 126.829 31.2834 126.852 31.3487C126.877 31.4096 126.875 31.4749 126.846 31.5359C126.823 31.5838 126.782 31.6215 126.726 31.6462C126.636 31.6723 126.61 31.665 126.562 31.652C126.489 31.6229 126.447 31.5809 126.421 31.5272C126.383 31.4314 126.357 31.3153 126.338 31.1688C126.327 31.0454 126.321 30.9105 126.321 30.7523C126.321 30.7247 126.315 30.6957 126.269 30.6667C126.218 30.6319 126.161 30.6174 126.089 30.6174H125.415V31.4343C125.415 31.5272 125.372 31.5823 125.336 31.6113C125.308 31.6403 125.25 31.665 125.188 31.665ZM125.412 30.1893H126.064C126.173 30.1893 126.257 30.1574 126.321 30.0907C126.374 30.0326 126.401 29.9659 126.401 29.8861C126.401 29.8048 126.374 29.7366 126.318 29.6742C126.257 29.6133 126.173 29.5799 126.064 29.5799H125.42C125.411 29.5799 125.408 29.5813 125.408 29.5813L125.412 30.1893Z" fill="white"/>
<path d="M125.901 32.4192C124.704 32.4192 123.729 31.5167 123.729 30.4081C123.729 29.298 124.703 28.3955 125.901 28.3955C127.099 28.3955 128.072 29.298 128.072 30.4081C128.072 31.5181 127.099 32.4192 125.901 32.4192ZM125.901 28.6567C124.848 28.6567 123.99 29.4431 123.99 30.4081C123.99 31.373 124.848 32.158 125.901 32.158C126.955 32.158 127.811 31.373 127.811 30.4081C127.811 29.4431 126.955 28.6567 125.901 28.6567Z" fill="white"/>
<path d="M107.449 14.9961H99.1055V15.0004H97.4194C97.0523 15.0004 96.7534 14.6928 96.7534 14.3141C96.7534 13.9354 97.0523 13.6278 97.4194 13.6278H112.107V8.43457H95.1732C92.3335 8.43457 90.0322 10.984 90.0322 14.1313C90.0322 17.2771 92.3335 19.8295 95.1732 19.8295H99.1055V19.8469H105.204C105.573 19.8469 105.87 20.1574 105.87 20.5361C105.87 20.9177 105.573 21.2268 105.204 21.2268H90.514V26.4447H107.45C110.29 26.4447 112.591 23.8822 112.591 20.7204C112.59 17.5601 110.29 14.9961 107.449 14.9961Z" fill="white"/>
<path d="M131.723 15.0708H123.381V15.0737H121.695C121.325 15.0737 121.026 14.7675 121.026 14.3874C121.026 14.0086 121.325 13.701 121.695 13.701H136.382V8.50781H119.447C116.606 8.50781 114.306 11.0587 114.306 14.206C114.306 17.3532 116.607 19.9027 119.447 19.9027H123.381V19.9201H129.477C129.847 19.9201 130.146 20.2306 130.146 20.6108C130.146 20.9924 129.847 21.3 129.477 21.3H114.789V26.5194H131.723C134.564 26.5194 136.865 23.9568 136.865 20.7936C136.867 17.6333 134.564 15.0708 131.723 15.0708Z" fill="white"/>
<path d="M23.5564 14.0251H39.1694V10.3004C39.1694 9.45442 38.4657 8.76953 37.5965 8.76953H17.9279C17.0602 8.76953 16.355 9.45442 16.355 10.3004V25.0674C16.355 25.9134 17.0602 26.5997 17.9279 26.5997H37.595C38.4642 26.5997 39.168 25.9134 39.168 25.0674V21.479H39.123V15.9115C39.123 15.3238 38.618 14.8479 37.9984 14.8479H28.561V19.124L32.1479 19.1472L32.5818 19.1501C32.8981 19.1516 33.1781 19.2982 33.3755 19.526C33.554 19.7349 33.6657 20.0106 33.6628 20.3153C33.6599 20.9552 33.1665 21.4703 32.5644 21.466L32.1465 21.4631V21.479H23.5535C22.8309 21.479 22.2461 21.1917 22.2461 20.8377V14.665C22.249 14.3124 22.8338 14.0251 23.5564 14.0251Z" fill="white"/>
<path d="M82.9019 8.3623H71.2647C68.2117 8.3623 65.7334 10.6723 65.7334 13.5221V26.4174H71.7087V21.9526H82.439V26.4174H88.4317V13.5221C88.4317 10.6723 85.9549 8.3623 82.9019 8.3623ZM73.2976 13.5323H80.8487C81.7266 13.5323 82.4347 14.2926 82.4347 15.23V17.0089H71.7087V15.23C71.7087 14.2941 72.4197 13.5323 73.2976 13.5323Z" fill="white"/>
<path d="M53.3357 48.5879H54.3413L54.9986 51.088H55.1016L55.8547 48.5879H56.9676L57.7236 51.088H57.8208L58.4767 48.5879H59.4895L58.378 52.5187H57.3681L56.4626 49.5702H56.3596L55.4527 52.5187H54.4414L53.3357 48.5879Z" fill="white"/>
<path d="M61.5485 48.5879H60.3369V52.5187H61.5485V48.5879Z" fill="white"/>
<path d="M68.0767 48.5879V52.5187H66.662L64.04 49.5702H63.9907V52.5187H62.7791V48.5879H64.2417L66.8651 51.5088V48.5879H68.0767Z" fill="white"/>
<path d="M73.4079 48.9478C74.1842 49.2554 74.5731 49.7893 74.5731 50.5497C74.5731 51.2955 74.219 51.8092 73.5124 52.0892C72.8391 52.378 71.983 52.5187 70.9383 52.5187H69.1724V48.5879H70.9383C71.983 48.5879 72.8043 48.7083 73.4079 48.9478ZM70.9383 52.1095C71.5433 52.1095 72.0817 52.0167 72.5518 51.8266C73.0567 51.6278 73.3121 51.2012 73.3121 50.5497C73.3121 49.8822 73.0422 49.444 72.5025 49.2278C72.0672 49.0769 71.5433 48.9985 70.9383 48.9985H70.3825V52.1095H70.9383Z" fill="white"/>
<path d="M80.943 50.5294C80.943 51.3681 80.573 51.9369 79.8344 52.2314C79.3962 52.4244 78.8419 52.5187 78.1687 52.5187C77.4649 52.5187 76.8918 52.423 76.455 52.2314C75.715 51.9369 75.3435 51.3681 75.3435 50.5294C75.3435 49.7023 75.7135 49.1436 76.455 48.8491C76.8918 48.675 77.4635 48.5879 78.1687 48.5879C78.8419 48.5879 79.3962 48.675 79.8344 48.8491C80.573 49.1436 80.943 49.7023 80.943 50.5294ZM76.5043 50.5294C76.5043 51.2897 76.722 51.7555 77.1573 51.9296C77.462 52.05 77.7986 52.1095 78.1657 52.1095C78.5024 52.1095 78.826 52.0486 79.1263 51.9296C79.566 51.7555 79.7822 51.2897 79.7822 50.5294C79.7822 49.7821 79.5645 49.3236 79.1263 49.1494C78.8274 49.029 78.5024 48.9695 78.1657 48.9695C77.7986 48.9695 77.462 49.029 77.1573 49.1494C76.722 49.3236 76.5043 49.7806 76.5043 50.5294Z" fill="white"/>
<path d="M81.1606 48.5879H82.1691L82.8264 51.088H82.9294L83.6869 48.5879H84.7955L85.5485 51.088H85.653L86.306 48.5879H87.3159L86.2059 52.5187H85.1974L84.2876 49.5702H84.1875L83.2777 52.5187H82.2692L81.1606 48.5879Z" fill="white"/>
<path d="M92.0112 52.5187V48.5879H97.3553V48.9985H93.2228V50.2682H96.3498V50.6803H93.2228V52.5187H92.0112Z" fill="white"/>
<path d="M99.7046 48.5879H98.4958V52.5187H99.7046V48.5879Z" fill="white"/>
<path d="M101.05 48.5879H102.261V52.1095H106.349V52.5187H101.05V48.5879Z" fill="white"/>
<path d="M108.279 49.5702V52.5187H107.243V48.5879H108.884L109.942 51.1301H110.045L111.104 48.5879H112.717V52.5187H111.683V49.5702H111.609L110.397 52.5187H109.59L108.379 49.5702H108.279Z" fill="white"/>
<path d="M117.831 50.6498C118.603 50.8239 118.99 51.0764 118.99 51.4102C118.99 51.7439 118.738 52.008 118.233 52.2097C117.763 52.4172 117.108 52.5187 116.268 52.5187C115.458 52.5187 114.839 52.423 114.399 52.2314C113.861 52.0167 113.592 51.7628 113.592 51.4711V51.2694H114.752V51.4493C114.752 51.6626 114.888 51.8223 115.156 51.9311C115.425 52.0356 115.76 52.0907 116.165 52.0907C116.703 52.0907 117.108 52.037 117.377 51.9311C117.68 51.8106 117.831 51.6568 117.831 51.4711C117.831 51.2694 117.594 51.1098 117.124 50.9908C116.284 50.7775 115.492 50.5511 114.752 50.3117C114.216 50.1376 113.929 49.9025 113.896 49.6109C113.861 49.3163 114.113 49.0697 114.656 48.8694C115.156 48.6822 115.711 48.5908 116.319 48.5908C117.056 48.5908 117.629 48.6706 118.031 48.8302C118.536 49.0319 118.772 49.312 118.738 49.6718H117.58C117.646 49.4469 117.511 49.267 117.175 49.1306C116.941 49.0377 116.654 48.9928 116.319 48.9928C115.979 48.9928 115.696 49.0377 115.458 49.1306C115.156 49.251 115.006 49.3918 115.006 49.5514C115.006 49.7226 115.241 49.8909 115.709 50.0505C116.417 50.2885 117.124 50.4902 117.831 50.6498Z" fill="white"/>
<path d="M41.3357 28.772V34.1495H47.7811C48.2135 34.1495 48.6053 34.3178 48.8897 34.592C48.9913 34.6921 49.074 34.8082 49.1466 34.9301C49.2757 35.1536 49.3555 35.406 49.3555 35.6788V46.4222H55.3482V35.467C55.3482 35.2783 55.3889 35.0984 55.4541 34.9287C55.5847 34.592 55.8329 34.3163 56.1506 34.1393C56.3799 34.0145 56.6396 33.9361 56.9226 33.9361H63.7032V28.7705H41.3357V28.772Z" fill="white"/>
<path d="M99.4478 28.772V34.1495H105.893C106.326 34.1495 106.716 34.3178 106.999 34.592C107.103 34.6921 107.186 34.8082 107.256 34.9301C107.385 35.1536 107.468 35.406 107.468 35.6788V46.4222H113.46V35.467C113.46 35.2783 113.499 35.0984 113.563 34.9287C113.694 34.592 113.942 34.3163 114.26 34.1393C114.491 34.0116 114.752 33.9347 115.032 33.9347H121.812V28.7705H99.4478V28.772Z" fill="white"/>
<path d="M91.4976 28.9122V39.9631L82.066 29.9119C81.4319 29.2343 80.6251 28.8541 79.8444 28.7729V28.7699H79.8256C79.8082 28.7685 79.7893 28.7641 79.7704 28.7627H79.3032C79.2698 28.7656 79.235 28.7641 79.2016 28.767H79.8024V28.7685H73.8938V46.4956H79.8444V35.3155L89.4183 45.5162C89.9929 46.1285 90.7054 46.5044 91.4149 46.632H91.4976V46.6378H97.4483V28.9122H91.4976Z" fill="white"/>
<path d="M71.8522 28.7969H65.7927V46.3267H71.8522V28.7969Z" fill="white"/>
<path d="M46.7685 35.9711H39.094V35.7825V28.8568L0.0078125 28.8408C0.187739 43.3206 12.6723 55.01 28.0546 55.01C35.4505 55.01 42.1745 52.3024 47.1864 47.8869V36.3745C47.0877 36.1961 46.9368 36.064 46.7685 35.9711Z" fill="white"/>
<path d="M48.7884 21.3357H47.423V19.9267V8.90039H47.4172H41.2068V24.9081C41.2068 25.754 41.912 26.4404 42.7797 26.4404H47.423L63.6904 26.4331V21.3458V21.3357H48.7884Z" fill="white"/>
<path d="M14.042 26.5995V8.12073C14.042 7.22255 15.1709 6.49268 16.5625 6.49268H44.9488C40.2083 2.84046 34.1866 0.649414 27.6265 0.649414C12.7797 0.649414 0.670875 12.5434 0.00195312 26.601H14.0464C14.045 26.5763 14.042 26.6242 14.042 26.5995Z" fill="white"/>
</svg>
